<mxfile host="app.diagrams.net" modified="2023-04-12T14:12:51.347Z" agent="Mozilla/5.0 (Windows NT 10.0; Win64; x64; rv:109.0) Gecko/20100101 Firefox/111.0" etag="WfnoxUNphGD8NQ3r00KX" version="21.1.6" type="device">
  <diagram name="Page-1" id="PM_BoeqZnwMwSGj7npcK">
    <mxGraphModel dx="1242" dy="696" grid="1" gridSize="10" guides="1" tooltips="1" connect="1" arrows="1" fold="1" page="1" pageScale="1" pageWidth="850" pageHeight="1100" math="0" shadow="0">
      <root>
        <mxCell id="0" />
        <mxCell id="1" parent="0" />
        <mxCell id="fGmN6G7-AVx09qi66UA5-24" style="edgeStyle=orthogonalEdgeStyle;rounded=0;orthogonalLoop=1;jettySize=auto;html=1;exitX=1;exitY=0.5;exitDx=0;exitDy=0;" edge="1" parent="1" source="fGmN6G7-AVx09qi66UA5-25" target="fGmN6G7-AVx09qi66UA5-26">
          <mxGeometry relative="1" as="geometry" />
        </mxCell>
        <mxCell id="fGmN6G7-AVx09qi66UA5-25" value="Idle" style="ellipse;whiteSpace=wrap;html=1;aspect=fixed;" vertex="1" parent="1">
          <mxGeometry x="120" y="80" width="80" height="80" as="geometry" />
        </mxCell>
        <mxCell id="fGmN6G7-AVx09qi66UA5-26" value="Calculating" style="ellipse;whiteSpace=wrap;html=1;aspect=fixed;" vertex="1" parent="1">
          <mxGeometry x="320" y="80" width="80" height="80" as="geometry" />
        </mxCell>
        <mxCell id="fGmN6G7-AVx09qi66UA5-28" value="Done" style="ellipse;whiteSpace=wrap;html=1;aspect=fixed;" vertex="1" parent="1">
          <mxGeometry x="220" y="200" width="80" height="80" as="geometry" />
        </mxCell>
        <mxCell id="fGmN6G7-AVx09qi66UA5-37" value="" style="edgeStyle=orthogonalEdgeStyle;rounded=0;orthogonalLoop=1;jettySize=auto;html=1;" edge="1" parent="1" source="fGmN6G7-AVx09qi66UA5-30" target="fGmN6G7-AVx09qi66UA5-25">
          <mxGeometry relative="1" as="geometry" />
        </mxCell>
        <mxCell id="fGmN6G7-AVx09qi66UA5-30" value="Reset" style="rounded=0;whiteSpace=wrap;html=1;" vertex="1" parent="1">
          <mxGeometry x="30" y="110" width="60" height="20" as="geometry" />
        </mxCell>
        <mxCell id="fGmN6G7-AVx09qi66UA5-31" value="&lt;div&gt;DataReady = 1&lt;/div&gt;&lt;div&gt;Opr != None &lt;br&gt;&lt;/div&gt;&lt;div&gt;Start &amp;lt;= Opr&lt;br&gt;&lt;/div&gt;" style="text;html=1;strokeColor=none;fillColor=none;align=center;verticalAlign=middle;whiteSpace=wrap;rounded=0;" vertex="1" parent="1">
          <mxGeometry x="210" y="80" width="100" height="40" as="geometry" />
        </mxCell>
        <mxCell id="fGmN6G7-AVx09qi66UA5-32" value="&lt;div&gt;&lt;div&gt;OprDone = 1&lt;br&gt;&lt;/div&gt;&lt;/div&gt;" style="text;html=1;strokeColor=none;fillColor=none;align=center;verticalAlign=middle;whiteSpace=wrap;rounded=0;" vertex="1" parent="1">
          <mxGeometry x="310" y="170" width="90" height="30" as="geometry" />
        </mxCell>
        <mxCell id="fGmN6G7-AVx09qi66UA5-33" value="&lt;div&gt;Done &amp;lt;= 1&lt;br&gt;&lt;/div&gt;" style="text;html=1;strokeColor=none;fillColor=none;align=center;verticalAlign=middle;whiteSpace=wrap;rounded=0;" vertex="1" parent="1">
          <mxGeometry x="140" y="170" width="80" height="30" as="geometry" />
        </mxCell>
        <mxCell id="fGmN6G7-AVx09qi66UA5-34" value="" style="endArrow=classic;html=1;rounded=0;entryX=1;entryY=0;entryDx=0;entryDy=0;exitX=0;exitY=1;exitDx=0;exitDy=0;" edge="1" parent="1" source="fGmN6G7-AVx09qi66UA5-26" target="fGmN6G7-AVx09qi66UA5-28">
          <mxGeometry width="50" height="50" relative="1" as="geometry">
            <mxPoint x="310" y="220" as="sourcePoint" />
            <mxPoint x="360" y="170" as="targetPoint" />
          </mxGeometry>
        </mxCell>
        <mxCell id="fGmN6G7-AVx09qi66UA5-36" value="" style="endArrow=classic;html=1;rounded=0;entryX=1;entryY=1;entryDx=0;entryDy=0;exitX=0;exitY=0;exitDx=0;exitDy=0;" edge="1" parent="1" source="fGmN6G7-AVx09qi66UA5-28" target="fGmN6G7-AVx09qi66UA5-25">
          <mxGeometry width="50" height="50" relative="1" as="geometry">
            <mxPoint x="298" y="222" as="sourcePoint" />
            <mxPoint x="342" y="158" as="targetPoint" />
          </mxGeometry>
        </mxCell>
      </root>
    </mxGraphModel>
  </diagram>
</mxfile>
